<?xml version="1.0" standalone="no"?>
<!DOCTYPE svg PUBLIC "-//W3C//DTD SVG 20010904//EN"
 "http://www.w3.org/TR/2001/REC-SVG-20010904/DTD/svg10.dtd">
<svg version="1.0" xmlns="http://www.w3.org/2000/svg"
 width="700.000000pt" height="700.000000pt" viewBox="0 0 700.000000 700.000000"
 preserveAspectRatio="xMidYMid meet">
<metadata>
Created by potrace 1.14, written by Peter Selinger 2001-2017
</metadata>
<g transform="translate(0.000000,700.000000) scale(0.100000,-0.100000)"
fill="#000000" stroke="none">
<path d="M3319 6086 c-2 -2 -35 -7 -74 -10 -397 -36 -805 -177 -1140 -394 -68
-44 -215 -149 -225 -161 -3 -3 -32 -28 -65 -56 -183 -150 -394 -399 -534 -628
-169 -277 -313 -684 -346 -977 -4 -30 -10 -84 -15 -120 -8 -65 -5 -469 4 -525
3 -16 10 -68 17 -115 14 -101 35 -147 85 -188 102 -85 255 -54 317 63 25 48
26 110 4 270 -14 104 -17 438 -3 505 2 14 7 48 11 75 15 125 81 365 132 485
48 113 132 276 180 350 57 88 162 229 198 266 11 12 41 44 66 70 204 217 459
391 759 517 48 21 248 86 280 92 14 3 36 7 50 11 51 11 187 34 260 43 74 9
421 7 470 -2 14 -3 47 -8 73 -12 27 -4 59 -8 70 -11 12 -2 36 -7 52 -9 46 -9
234 -62 295 -85 100 -37 112 -42 214 -92 105 -52 219 -118 224 -130 2 -5 8 -8
13 -8 6 0 36 -19 67 -42 194 -142 346 -291 478 -468 199 -268 319 -536 393
-879 25 -114 55 -163 123 -197 58 -29 117 -31 177 -3 99 44 140 135 117 254
-41 214 -97 392 -183 583 -186 411 -468 762 -826 1025 -313 231 -713 404
-1067 463 -19 3 -37 7 -41 9 -3 2 -39 7 -80 11 -40 3 -78 9 -84 12 -10 6 -439
14 -446 8z"/>
<path d="M3347 5244 c-1 -1 -28 -4 -60 -8 -101 -10 -250 -45 -302 -71 -149
-72 -150 -291 -2 -366 55 -28 112 -31 197 -8 86 22 127 28 250 35 132 8 167
19 216 68 84 83 85 197 5 288 -47 54 -97 70 -208 67 -52 -2 -95 -4 -96 -5z"/>
<path d="M4154 5059 c-42 -12 -100 -66 -123 -114 -25 -51 -22 -127 5 -180 22
-43 41 -58 204 -164 207 -136 375 -336 479 -571 60 -136 114 -181 216 -181
122 0 216 99 210 222 -4 75 -118 301 -232 462 -77 109 -256 287 -373 373 -204
149 -287 182 -386 153z"/>
<path d="M6240 4530 c-103 -19 -173 -102 -171 -206 0 -67 19 -104 91 -179 69
-73 90 -111 97 -179 36 -352 -697 -841 -1732 -1156 -232 -70 -634 -167 -814
-196 -18 -3 -43 -7 -55 -10 -54 -10 -250 -41 -311 -48 -16 -2 -55 -7 -85 -11
-95 -12 -103 -13 -180 -20 -242 -23 -387 -30 -660 -30 -238 0 -425 7 -535 19
-16 2 -57 7 -90 11 -306 35 -568 102 -760 195 -123 60 -199 120 -250 196 -37
56 -40 63 -40 135 0 69 4 83 43 160 33 68 42 95 42 137 0 122 -96 214 -214
207 -67 -3 -97 -16 -139 -59 -46 -46 -112 -183 -136 -282 -84 -359 100 -664
524 -869 123 -59 259 -112 352 -135 36 -9 47 -19 84 -78 39 -63 156 -231 169
-242 3 -3 30 -34 60 -70 108 -128 272 -283 415 -392 279 -211 673 -391 1007
-459 29 -6 71 -15 93 -19 22 -5 67 -11 100 -15 33 -4 87 -10 120 -15 61 -8
426 -6 500 3 543 67 988 254 1390 586 449 371 773 913 885 1483 6 31 16 58 23
61 29 12 220 172 298 251 159 160 260 326 300 492 28 120 25 211 -14 359 -19
72 -104 201 -187 284 -78 78 -143 105 -220 91z m-715 -1812 c-4 -13 -11 -27
-16 -32 -5 -6 -9 -16 -9 -23 0 -13 -74 -166 -120 -248 -98 -175 -273 -388
-443 -539 -301 -268 -699 -456 -1097 -520 -222 -35 -585 -26 -780 19 -14 3
-36 8 -50 11 -39 8 -180 50 -230 69 -25 9 -60 21 -78 26 -17 6 -96 43 -175 82
-257 131 -421 255 -637 482 l-45 47 110 -7 c61 -4 130 -9 155 -11 59 -4 518
-4 595 0 109 6 269 17 305 21 19 3 64 7 100 10 67 6 359 42 396 49 12 2 45 7
75 11 30 4 56 8 59 10 3 2 27 6 53 9 27 4 92 15 145 26 54 11 111 22 129 25
207 35 704 171 978 268 225 80 492 189 555 227 25 15 32 11 25 -12z"/>
</g>
</svg>
